<svg width="800" height="800" viewBox="0 0 800 800" fill="none" xmlns="http://www.w3.org/2000/svg">
<g clip-path="url(#clip0_1310_4)">
<path d="M400 0C179.075 0 0 179.075 0 400C0 620.925 179.075 800 400 800C620.925 800 800 620.925 800 400C800 179.075 620.925 0 400 0Z" fill="#7878C7"/>
<path d="M612.125 187.875C555.45 131.2 480.15 100 400 100C319.85 100 244.55 131.2 187.875 187.875C131.2 244.55 100 319.85 100 400C100 480.15 131.2 555.475 187.875 612.125C244.55 668.775 319.85 700 400 700C480.15 700 555.45 668.8 612.125 612.125C668.8 555.45 700 480.15 700 400C700 319.85 668.775 244.525 612.125 187.875Z" fill="#C3C4FA"/>
<path d="M559.075 240.9C516.575 198.4 460.075 175 400 175C339.925 175 283.4 198.4 240.9 240.9C198.4 283.4 175 339.9 175 400C175 460.1 198.4 516.6 240.9 559.1C283.4 601.6 339.9 625 400 625C460.1 625 516.6 601.6 559.1 559.1C601.575 516.6 625 460.1 625 400C625 339.9 601.575 283.4 559.075 240.9Z" fill="#8787E0"/>
<path d="M400 525C469.036 525 525 469.036 525 400C525 330.964 469.036 275 400 275C330.964 275 275 330.964 275 400C275 469.036 330.964 525 400 525Z" fill="#4545AD"/>
</g>
<defs>
<clipPath id="clip0_1310_4">
<rect width="800" height="800" fill="white"/>
</clipPath>
</defs>
</svg>
